<?xml version="1.0" encoding="UTF-8" standalone="no"?>
<!-- Generator: Adobe Illustrator 15.1.0, SVG Export Plug-In . SVG Version: 6.00 Build 0)  -->

<svg
   version="1.1"
   x="0px"
   y="0px"
   width="83.477997"
   height="47.735741"
   viewBox="0 0 83.477996 47.73574"
   enable-background="new 0 0 85.04 85.04"
   xml:space="preserve"
   id="svg148"
   sodipodi:docname="logo.svg"
   inkscape:version="1.2.2 (b0a84865, 2022-12-01)"
   xmlns:inkscape="http://www.inkscape.org/namespaces/inkscape"
   xmlns:sodipodi="http://sodipodi.sourceforge.net/DTD/sodipodi-0.dtd"
   xmlns="http://www.w3.org/2000/svg"
   xmlns:svg="http://www.w3.org/2000/svg"><defs
   id="defs152" /><sodipodi:namedview
   id="namedview150"
   pagecolor="#ffffff"
   bordercolor="#000000"
   borderopacity="0.25"
   inkscape:showpageshadow="2"
   inkscape:pageopacity="0.0"
   inkscape:pagecheckerboard="0"
   inkscape:deskcolor="#d1d1d1"
   showgrid="false"
   inkscape:zoom="2.7751646"
   inkscape:cx="11.350678"
   inkscape:cy="30.628814"
   inkscape:window-width="1866"
   inkscape:window-height="878"
   inkscape:window-x="0"
   inkscape:window-y="25"
   inkscape:window-maximized="0"
   inkscape:current-layer="svg148" />
<g
   id="Слой_1"
   transform="translate(0,-12.732258)">
</g>
<g
   id="Режим_изоляции"
   transform="translate(0,-12.732258)">
	<g
   id="g137">
		<path
   fill="#808283"
   d="m 83.478,29.481 c 0,-0.466 -0.195,-0.884 -0.507,-1.182 -0.299,-0.312 -0.717,-0.507 -1.182,-0.507 -0.133,0 -0.26,0.02 -0.383,0.05 h -8.804 c -0.691,0 -1.279,0.428 -1.521,1.033 -0.142,0.284 -0.201,0.611 -0.149,0.948 0.576,3.739 0.754,11.772 -2.376,12.739 -0.838,0.26 -1.308,1.149 -1.048,1.988 0.21,0.682 0.839,1.12 1.518,1.12 0.155,0 0.313,-0.023 0.471,-0.071 5.386,-1.666 5.172,-10.521 4.793,-14.479 h 5.86 v 12.314 c 0,0.906 0.733,1.639 1.639,1.639 0.906,0 1.639,-0.733 1.639,-1.639 v -13.57 c 0.03,-0.125 0.05,-0.251 0.05,-0.383 z"
   id="path133" />
		<path
   fill="#808283"
   d="m 58.201,27.941 c -4.983,0 -9.038,4.054 -9.038,9.037 0,4.983 4.055,9.038 9.038,9.038 4.984,0 9.037,-4.055 9.037,-9.038 0,-4.983 -4.052,-9.037 -9.037,-9.037 z m 0,14.898 c -3.231,0 -5.859,-2.629 -5.859,-5.86 0,-3.23 2.628,-5.859 5.859,-5.859 3.23,0 5.859,2.628 5.859,5.859 0.001,3.231 -2.628,5.86 -5.859,5.86 z"
   id="path135" />
	</g>
	<g
   id="g145">
		<path
   fill="#ae294d"
   d="m 28.653,49.642 c 0.905,0 1.639,-0.732 1.639,-1.638 V 44.03 c 0,-0.906 -0.734,-1.638 -1.639,-1.638 -0.133,0 -0.259,0.02 -0.383,0.049 H 27.809 V 29.864 c 0.03,-0.125 0.049,-0.251 0.049,-0.383 0,-0.466 -0.196,-0.884 -0.507,-1.182 -0.298,-0.312 -0.716,-0.507 -1.181,-0.507 -0.132,0 -0.259,0.02 -0.383,0.05 h -8.804 c -0.69,0 -1.279,0.428 -1.52,1.033 -0.141,0.284 -0.201,0.611 -0.15,0.948 0.555,3.604 0.731,11.185 -2.062,12.589 -0.759,0.097 -1.35,0.708 -1.418,1.476 -0.002,0.022 -0.005,0.045 -0.007,0.067 0,0.026 -0.007,0.05 -0.007,0.075 v 3.974 c 0,0.905 0.733,1.638 1.639,1.638 0.906,0 1.639,-0.732 1.639,-1.638 v -2.285 h 11.918 v 2.285 c -0.001,0.905 0.733,1.638 1.638,1.638 z M 18.671,31.12 h 5.86 V 42.441 H 17.38 c 1.739,-3.424 1.555,-8.562 1.291,-11.321 z"
   id="path139" />
		<path
   fill="#ae294d"
   d="m 45.339,28.089 c -0.389,0 -0.74,0.143 -1.021,0.373 -0.233,0.114 -0.444,0.277 -0.606,0.501 L 35.159,39.84 V 29.757 c 0,-0.92 -0.734,-1.667 -1.639,-1.667 -0.905,0 -1.639,0.748 -1.639,1.667 v 14.244 c 0,0.301 0.084,0.578 0.22,0.822 0.096,0.341 0.297,0.656 0.607,0.882 0.732,0.532 1.756,0.37 2.289,-0.362 L 43.7,34.275 v 9.726 c 0,0.922 0.733,1.668 1.639,1.668 0.904,0 1.639,-0.746 1.639,-1.668 V 29.757 c 0,-0.92 -0.735,-1.668 -1.639,-1.668 z"
   id="path141" />
		<path
   fill="#ae294d"
   d="m 36.022,50.949 c -3.545,3.576 -8.296,5.546 -13.377,5.546 -10.295,0 -18.672,-8.228 -18.672,-18.34 0,-10.114 8.377,-18.341 18.672,-18.341 h 3.466 v 2.05 c 0,0.404 0.205,0.781 0.544,1.001 0.196,0.126 0.421,0.191 0.648,0.191 0.166,0 0.332,-0.034 0.487,-0.104 l 8.85,-3.97 c 0.429,-0.192 0.705,-0.618 0.705,-1.087 0,-0.47 -0.275,-0.896 -0.705,-1.087 l -8.85,-3.971 c -0.367,-0.166 -0.795,-0.133 -1.135,0.087 -0.339,0.219 -0.544,0.596 -0.544,1 v 1.918 H 22.645 C 10.159,15.84 0,25.85 0,38.155 c 0,12.303 10.159,22.313 22.645,22.313 6.149,0 11.902,-2.388 16.198,-6.722 0.773,-0.78 0.768,-2.037 -0.012,-2.809 -0.779,-0.773 -2.037,-0.767 -2.809,0.012 z"
   id="path143" />
	</g>
</g>
</svg>
