<?xml version="1.0" encoding="UTF-8" standalone="no"?>
<svg
   xmlns:dc="http://purl.org/dc/elements/1.1/"
   xmlns:cc="http://creativecommons.org/ns#"
   xmlns:rdf="http://www.w3.org/1999/02/22-rdf-syntax-ns#"
   xmlns:svg="http://www.w3.org/2000/svg"
   xmlns="http://www.w3.org/2000/svg"
   xmlns:sodipodi="http://sodipodi.sourceforge.net/DTD/sodipodi-0.dtd"
   xmlns:inkscape="http://www.inkscape.org/namespaces/inkscape"
   version="1.1"
   id="Слой_1"
   x="0px"
   y="0px"
   viewBox="0 0 186.13583 70.019995"
   xml:space="preserve"
   sodipodi:docname="Dodo Pizza 2017 English.svg"
   width="186.13583"
   height="70.019997"
   inkscape:version="1.0.1 (3bc2e813f5, 2020-09-07)"><metadata
   id="metadata37"><rdf:RDF><cc:Work
       rdf:about=""><dc:format>image/svg+xml</dc:format><dc:type
         rdf:resource="http://purl.org/dc/dcmitype/StillImage" /><dc:title></dc:title></cc:Work></rdf:RDF></metadata><defs
   id="defs35" /><sodipodi:namedview
   pagecolor="#ffffff"
   bordercolor="#666666"
   borderopacity="1"
   objecttolerance="10"
   gridtolerance="10"
   guidetolerance="10"
   inkscape:pageopacity="0"
   inkscape:pageshadow="2"
   inkscape:window-width="1920"
   inkscape:window-height="1017"
   id="namedview33"
   showgrid="false"
   fit-margin-top="0"
   fit-margin-left="0"
   fit-margin-right="0"
   fit-margin-bottom="0"
   inkscape:zoom="5.8742618"
   inkscape:cx="93.074999"
   inkscape:cy="35.010001"
   inkscape:window-x="-8"
   inkscape:window-y="-8"
   inkscape:window-maximized="1"
   inkscape:current-layer="Слой_1" />
<style
   type="text/css"
   id="style2">
	.st0{fill:#FF6900;}
	.st1{fill:#FFFFFF;}
</style>
<g
   id="g18"
   transform="translate(-22.69,-22.55)">
	<g
   id="g16">
		<path
   d="m 116.58,29.43 h -7.27 c -1.47,0 -2.69,1.07 -2.69,2.76 v 16.76 c 0,1.68 1.22,2.65 2.69,2.65 h 7.27 c 6.48,0 11.46,-4.51 11.46,-11.14 -0.01,-6.59 -4.98,-11.03 -11.46,-11.03 z m 0,17.01 H 112 V 34.58 h 4.58 c 3.69,0 6.16,2.18 6.16,5.87 -0.01,3.69 -2.48,5.99 -6.16,5.99 z m 25.67,-17.19 c -6.41,0 -11.35,4.83 -11.35,11.28 0,6.52 4.94,11.28 11.35,11.28 6.41,0 11.35,-4.94 11.35,-11.35 0,-6.45 -4.94,-11.21 -11.35,-11.21 z m 0,17.51 c -3.51,0 -6.05,-2.65 -6.05,-6.27 0,-3.54 2.54,-6.19 6.05,-6.19 3.54,0 6.05,2.65 6.05,6.19 0,3.62 -2.4,6.27 -6.05,6.27 z m 24.89,-17.33 h -7.27 c -1.47,0 -2.69,1.07 -2.69,2.76 v 16.76 c 0,1.68 1.22,2.65 2.69,2.65 h 7.27 c 6.48,0 11.46,-4.51 11.46,-11.14 -0.01,-6.59 -4.98,-11.03 -11.46,-11.03 z m 0,17.01 h -4.58 V 34.58 h 4.58 c 3.69,0 6.16,2.18 6.16,5.87 -0.01,3.69 -2.48,5.99 -6.16,5.99 z m 25.67,-17.19 c -6.41,0 -11.35,4.83 -11.35,11.28 0,6.52 4.94,11.28 11.35,11.28 6.41,0 11.35,-4.94 11.35,-11.35 0,-6.45 -4.94,-11.21 -11.35,-11.21 z m 0,17.51 c -3.51,0 -6.05,-2.65 -6.05,-6.27 0,-3.54 2.54,-6.19 6.05,-6.19 3.54,0 6.05,2.65 6.05,6.19 0,3.62 -2.4,6.27 -6.05,6.27 z"
   id="path4" />
		<path
   d="m 118.34,63.31 h -8.95 c -1.47,0 -2.65,0.97 -2.65,2.65 v 17.08 c 0,1.68 1.22,2.65 2.72,2.65 1.47,0 2.65,-0.97 2.65,-2.65 v -4.01 h 6.23 c 4.83,0 7.88,-3.4 7.88,-7.88 0,-4.51 -3.04,-7.84 -7.88,-7.84 z m 0,10.67 h -6.23 v -5.62 h 6.23 c 1.75,0 2.69,1.29 2.69,2.83 0,1.53 -0.93,2.79 -2.69,2.79 z"
   id="path6" />
		<path
   d="m 133.1,63.13 c -1.5,0 -2.76,1 -2.76,2.69 V 83 c 0,1.68 1.25,2.69 2.76,2.69 1.51,0 2.76,-1 2.76,-2.69 V 65.81 c -0.01,-1.68 -1.26,-2.68 -2.76,-2.68 z"
   id="path8" />
		<path
   d="m 158.3,80.39 h -11.14 l 11.03,-9.92 c 1.58,-1.4 2.22,-2.54 2.22,-4.05 V 66.2 c 0,-1.83 -1.11,-2.9 -3.12,-2.9 h -14.07 c -1.68,0 -2.65,1.18 -2.65,2.61 0,1.47 0.97,2.47 2.65,2.47 h 10.31 l -10.63,9.6 c -2.08,1.86 -2.58,2.97 -2.58,4.33 v 0.25 c 0,1.79 1.15,2.9 3.08,2.9 h 14.9 c 1.68,0 2.65,-1.15 2.65,-2.58 0,-1.46 -0.96,-2.49 -2.65,-2.49 z"
   id="path10" />
		<path
   d="m 181.61,80.39 h -11.14 l 11.03,-9.92 c 1.58,-1.4 2.22,-2.54 2.22,-4.05 V 66.2 c 0,-1.83 -1.11,-2.9 -3.12,-2.9 h -14.07 c -1.68,0 -2.65,1.18 -2.65,2.61 0,1.47 0.97,2.47 2.65,2.47 h 10.31 l -10.63,9.6 c -2.08,1.86 -2.58,2.97 -2.58,4.33 v 0.25 c 0,1.79 1.15,2.9 3.08,2.9 h 14.9 c 1.68,0 2.65,-1.15 2.65,-2.58 0,-1.46 -0.96,-2.49 -2.65,-2.49 z"
   id="path12" />
		<path
   d="m 208.54,81.71 -7.3,-15.9 c -0.82,-1.75 -1.97,-2.51 -3.62,-2.51 h -0.29 c -1.72,0 -2.86,0.75 -3.69,2.51 l -7.3,15.9 c -0.72,1.58 -0.22,2.97 1.22,3.51 1.29,0.5 2.58,0.21 3.29,-1.29 l 1.65,-3.47 c 1.47,0.5 3.29,0.75 5.01,0.75 1.83,0 3.44,-0.25 4.8,-0.75 l 1.58,3.44 c 0.68,1.5 2.08,1.79 3.33,1.32 1.43,-0.54 2,-2 1.32,-3.51 z m -11.03,-5.26 c -1.11,0 -2.29,-0.14 -3.19,-0.39 l 3.12,-6.95 3.11,6.95 c -0.85,0.24 -1.93,0.39 -3.04,0.39 z"
   id="path14" />
	</g>
</g>
<g
   id="g30"
   transform="translate(-22.69,-22.55)">
	<path
   class="st0"
   d="m 54.01,22.56 c 20.38,0 36.04,14.02 36.04,34.83 0,20.92 -15.65,35.17 -36.04,35.17 H 31.15 c -4.62,0 -8.45,-3.05 -8.45,-8.37 V 31.26 c 0,-5.31 3.83,-8.71 8.45,-8.71 h 22.86 z"
   id="path20" />
	<path
   d="m 33.68,92.56 c 5.85,-3.24 8.75,-6.21 10.76,-8.99 3.92,1.75 7.68,2.5 11.08,2.5 6.37,0 11.79,-2.93 14.62,-8.16 2.91,-1.75 4.84,-5.34 4.96,-7.91 1.81,-2.28 2.15,-5.16 1.59,-7.11 -0.13,-0.46 -0.51,-0.48 -1.16,-0.08 -5.74,3.44 -11.29,5.08 -16.59,5.08 -3.22,0 -6.51,-0.51 -10.02,-1.53 -0.25,-3.76 -1.02,-6.91 -1.31,-8.82 -0.41,-2.52 0.17,-4.39 2.94,-4.39 2.03,0 5.79,0.52 8.8,1.88 2.98,1.35 4.75,4.02 5.98,4.02 0.5,0 1.03,-0.31 1.03,-1.37 0,-2.15 -0.77,-5.62 -1.72,-6.86 2.78,-0.16 5,-0.13 6.24,0.01 2.59,0.45 2.71,1.75 3.22,2.6 0.51,0.85 1.38,1.22 2.42,1.22 1.93,0 3.13,-0.99 3.13,-4.58 0,-7.88 -4.98,-11.71 -10.2,-11.71 -4.29,0 -5.94,0.94 -10.01,0.94 -2.89,0 -5.28,-5.87 -8.56,-6.65 -1.45,-3.22 -4.7,-3.59 -6.7,-1.97 -1.82,-1.11 -4.66,-0.51 -4.78,1.53 -2.09,-0.65 -4.79,0.48 -3.63,3.23 -5.11,0.15 -6.07,4.67 -2.6,5.17 -4.47,2.53 -2.43,6.89 1.32,5.97 0.26,3.1 1.52,8.11 1.52,11.56 0,4.81 -2.18,5.92 -5.16,5.92 -2.36,0 -5.81,-0.86 -8.16,-1.52 v 3.35 c 2.37,0.59 5.93,1.35 8.59,1.35 4.7,0 7.31,-2.76 7.31,-8.01 0,-6.45 -2.06,-12.31 -1.39,-15.98 l -0.17,-0.21 c -2.35,2.45 -3.87,1.8 -4.04,1.01 -0.33,-1.58 2.41,-3.51 3.98,-4.19 0.03,-0.1 0.07,-0.21 0.11,-0.32 -1.47,0.23 -3.2,0.04 -3.26,-1.01 -0.07,-1.25 2.43,-2.36 5.7,-2.08 0.06,-0.05 0.13,-0.1 0.19,-0.16 -0.21,-0.08 -0.43,-0.18 -0.7,-0.33 -0.85,-0.43 -1.05,-1.16 -0.77,-1.68 0.3,-0.58 1.23,-0.8 1.98,-0.79 1.18,0.02 2.18,0.31 2.91,0.61 0.08,-0.04 0.17,-0.07 0.25,-0.1 -0.27,-0.21 -0.51,-0.44 -0.65,-0.68 -0.2,-0.35 -0.25,-0.82 0.14,-1.13 0.46,-0.36 1.62,-0.49 2.67,0.46 0.22,0.2 0.4,0.39 0.57,0.57 0.12,-0.02 0.23,-0.04 0.35,-0.06 -0.17,-0.27 -0.31,-0.55 -0.36,-0.8 -0.06,-0.35 0.05,-0.73 0.47,-0.87 0.45,-0.15 1.03,0.09 1.33,0.53 0.32,0.47 0.51,1.06 0.64,1.47 -2.31,0.27 -8.45,1.67 -8.45,9.09 0,7.23 6.01,14.83 6.01,26.03 -0.01,4.07 -0.91,8.16 -4.6,12.92 -2.85,3.67 -7.38,7.22 -14.44,10.13 1.21,0.59 2.6,0.91 4.07,0.91 h 2.55 z M 61.94,47.07 c 0.71,-2.11 1.32,-3.69 2.47,-4.91 1.21,-1.28 2.55,-1.68 5.49,-1.68 4.07,0 7.47,4.11 7.47,9.86 0,0.85 -1.15,0.85 -1.51,0.07 -1.38,-2.44 -3.26,-2.79 -6.21,-3.01 -2.18,-0.13 -4.81,0.06 -7.2,0.16 C 62,47.58 61.87,47.27 61.94,47.07 Z M 48.97,70.13 c 3.22,0.89 7.67,1.37 11.36,1.11 6.49,-0.46 11.36,-2.87 14.1,-4.63 -1.65,4.16 -7.82,6.74 -13.81,7.47 -0.04,0.3 -0.08,0.6 -0.14,0.88 4.49,-0.24 8.76,-1.7 10.69,-3.03 -1.11,4.09 -6.6,5.74 -11.59,5.97 -0.14,0.32 -0.29,0.62 -0.44,0.91 2.9,0.05 5.69,-0.49 7.34,-1.01 -1.49,2.85 -6.64,5.1 -11.88,5.1 -2.58,0 -5.79,-0.5 -8.58,-1.83 2.01,-3.68 2.79,-7.46 2.95,-10.94 z"
   id="path22" />
	<path
   d="m 22.7,76.12 c 2.46,-0.49 4.88,-0.94 4.88,-0.94 l 0.31,-1.33 c -1.11,-0.06 -3.31,-0.03 -5.19,0.02 z"
   id="path24" />
	<path
   class="st1"
   d="m 49.19,36.55 c 0.86,-0.29 2.09,0.56 2.75,1.89 0.66,1.33 0.5,2.64 -0.36,2.93 -0.85,0.3 -2.08,-0.55 -2.74,-1.88 -0.09,-0.18 -0.16,-0.36 -0.22,-0.54 l 0.15,-0.04 c 0.27,0.26 0.6,0.33 0.82,0.19 0.3,-0.2 0.27,-0.72 0.02,-1.18 -0.18,-0.37 -0.6,-0.76 -0.95,-0.73 L 48.6,37.1 c 0.13,-0.26 0.32,-0.46 0.59,-0.55 m 6.02,13.36 c -3.85,-0.84 -8.05,-1.96 -10.3,-5.26 -0.04,-0.06 -0.12,-0.09 -0.19,-0.07 -0.07,0.02 -0.12,0.08 -0.13,0.16 -0.01,0.18 0.02,0.38 0.06,0.57 l -0.3,0.11 c -0.59,-0.83 -0.71,-1.85 -0.13,-2.57 0.84,-1.05 2.56,-0.94 3.58,-0.29 l -0.13,0.28 C 47.12,42.75 46.6,42.75 46.19,43 c -0.35,0.21 -0.39,0.52 -0.18,0.92 1.86,3.46 7.28,4.22 13.72,3.72 0.66,-0.05 0.82,-0.35 0.9,-0.67 0.56,-2.23 1.57,-4.22 3.08,-5.74 -1.17,0.16 -2.27,0.2 -3.22,0.25 -3.33,0.21 -5.23,-0.23 -5.82,-0.7 l 0.11,-0.29 c 0.35,0.12 0.72,0.15 0.8,0.05 0.1,-0.14 0.02,-0.23 -0.14,-0.37 -0.63,-0.59 -3.47,-3.5 -3.46,-3.48 -0.31,-2.46 -3.89,-2.55 -5.32,-0.13 l -0.49,-0.13 c 0.14,-0.53 0.35,-0.96 0.55,-1.28 -2.99,0.68 -4.69,3.36 -5,5.95 -1.33,11.14 15.58,8.57 20.41,13.03 0.09,0.07 0.32,0.4 0.49,0.19 0.2,-0.6 -1.93,-3.2 -7.41,-4.41"
   id="path26" />
	<path
   class="st1"
   d="m 74.42,66.6 c -2.74,1.76 -7.61,4.18 -14.1,4.63 -3.69,0.26 -8.14,-0.22 -11.36,-1.11 -0.05,1.07 -0.16,2.18 -0.34,3.3 1.81,0.47 5.04,1.08 9.7,1.21 -0.21,1.25 -1.48,5.5 -4.73,8.25 5.93,0.25 11.31,-2.06 12.89,-5.07 -1.66,0.52 -4.44,1.06 -7.34,1.01 0.15,-0.29 0.3,-0.59 0.44,-0.91 4.99,-0.24 10.48,-1.88 11.59,-5.97 -1.93,1.33 -6.2,2.79 -10.69,3.03 0.05,-0.29 0.1,-0.58 0.14,-0.88 5.97,-0.74 12.15,-3.33 13.8,-7.49 z"
   id="path28" />
</g>
</svg>
